<?xml version="1.0" standalone="no"?>
<!DOCTYPE svg PUBLIC "-//W3C//DTD SVG 20010904//EN"
 "http://www.w3.org/TR/2001/REC-SVG-20010904/DTD/svg10.dtd">
<svg version="1.0" xmlns="http://www.w3.org/2000/svg"
 width="745.000000pt" height="747.000000pt" viewBox="0 0 745.000000 747.000000"
 preserveAspectRatio="xMidYMid meet">

<g transform="translate(0.000000,747.000000) scale(0.100000,-0.100000)"
fill="#000000" stroke="none">
<path d="M3620 7234 c-25 -8 -184 -53 -355 -100 -170 -47 -400 -110 -510 -141
-110 -30 -263 -72 -340 -93 -77 -21 -241 -66 -365 -100 -124 -34 -286 -79
-360 -99 l-135 -37 -8 -570 c-4 -313 -10 -672 -15 -798 l-7 -229 -725 -209
c-399 -115 -730 -212 -737 -216 -9 -5 -13 -307 -15 -1281 l-3 -1274 983 -578
982 -579 118 56 c64 31 317 155 561 275 l444 219 36 -29 c20 -16 38 -28 41
-27 5 1 111 -59 255 -144 44 -26 181 -107 305 -180 520 -307 718 -424 760
-450 25 -15 124 -74 220 -131 96 -56 215 -126 264 -155 50 -30 91 -52 92 -51
0 1 -2 202 -7 447 -4 245 -13 708 -18 1030 -6 322 -14 692 -17 823 l-7 238
-56 33 c-31 18 -135 81 -231 141 -96 59 -224 137 -284 174 -109 65 -216 153
-216 175 1 6 32 33 71 59 l70 48 95 -66 c53 -37 193 -123 312 -192 120 -69
241 -141 270 -159 51 -31 56 -32 90 -19 21 8 109 41 197 75 88 34 189 72 225
85 36 13 137 51 225 85 168 64 559 212 758 286 64 24 172 65 240 90 434 163
647 219 382 101 -111 -49 -437 -198 -950 -432 -104 -48 -233 -106 -285 -130
-52 -24 -183 -84 -290 -133 -107 -49 -252 -115 -321 -146 l-126 -58 -7 -246
c-3 -136 -13 -458 -21 -717 -8 -259 -22 -715 -30 -1015 -14 -516 -16 -546 -35
-572 -11 -15 -20 -29 -20 -31 0 -2 22 -14 49 -26 l48 -23 184 104 c101 58 288
164 414 236 241 136 576 326 830 470 83 47 263 149 400 227 138 78 274 155
304 171 l53 29 -5 255 c-3 140 -11 561 -16 935 -18 1111 -20 1185 -40 1177
-14 -5 -14 -3 -3 10 7 9 9 19 4 22 -5 3 -335 127 -733 276 -398 150 -736 277
-751 285 -22 11 -29 10 -41 -2 -9 -9 -20 -12 -28 -8 -9 6 -9 11 3 19 13 10 16
96 22 636 3 344 9 812 12 1042 l7 416 -734 242 c-404 134 -889 294 -1078 356
-190 63 -347 114 -350 113 -3 -1 -26 -7 -51 -15z m-927 -1152 l887 -441 248
95 c259 100 349 135 522 202 131 51 696 268 850 327 63 24 171 66 240 93 69
27 134 53 145 57 18 7 18 6 5 -7 -8 -8 -49 -30 -90 -48 -41 -19 -145 -67 -230
-108 -85 -41 -211 -101 -280 -134 -175 -84 -994 -471 -1175 -555 -133 -62
-150 -72 -156 -99 -11 -45 -51 -1248 -65 -1984 -13 -627 -13 -627 -75 1375
-11 363 -21 661 -22 661 -2 2 -1136 668 -1407 827 -240 140 -320 188 -320 194
0 2 8 -1 18 -6 9 -5 417 -207 905 -449z m-1568 -2051 c779 -390 885 -441 926
-441 26 0 130 11 233 25 l185 26 83 -48 83 -48 -145 -7 c-80 -4 -158 -11 -175
-16 -57 -18 -230 -84 -237 -91 -4 -3 -19 -289 -33 -636 -15 -346 -37 -864 -50
-1150 l-23 -520 -1 1141 -1 1142 -72 45 c-40 24 -172 104 -293 177 -121 73
-326 197 -455 275 -129 78 -334 202 -455 275 -348 211 -509 308 -525 319 -45
31 159 -69 955 -468z"/>
</g>
</svg>
